<?xml version="1.0" encoding="utf-8"?><svg xmlns="http://www.w3.org/2000/svg" xmlns:xlink="http://www.w3.org/1999/xlink"><symbol viewBox="0 0 52 52" id="bouquet" xmlns="http://www.w3.org/2000/svg"><path d="M35.638 13.899c.211 0 .425-.017.638-.05a3.992 3.992 0 002.621-1.608l3.828-5.27a.762.762 0 00-.492-1.2 24.537 24.537 0 00-3.402-.277 24.712 24.712 0 00-1.316-3.15.762.762 0 00-1.293-.096l-3.827 5.27a3.992 3.992 0 00-.717 2.99c.124.786.47 1.5.993 2.074-.579.688-1.6 1.941-2.718 3.5v-.666a.762.762 0 00-1.523 0v2.91a36.788 36.788 0 00-1.733 2.996v-5.59l2.22-2.22a.762.762 0 10-1.078-1.077l-1.142 1.142V11.22a4.024 4.024 0 003.256-3.945V.762A.762.762 0 0028.851.08c-.062.031-1.42.714-2.916 1.775A24.685 24.685 0 0023.02.08a.762.762 0 00-1.102.682v6.513a4.024 4.024 0 003.256 3.945v3.986l-1.956-1.957a.762.762 0 00-1.077 1.077l3.033 3.034v3.962c-1.942-3.79-4.825-7.375-5.974-8.74.523-.574.87-1.288.994-2.073a3.992 3.992 0 00-.718-2.99l-3.827-5.27a.761.761 0 00-1.292.096c-.033.062-.73 1.413-1.317 3.149a24.6 24.6 0 00-3.402.278.762.762 0 00-.492 1.199l3.828 5.27a3.992 3.992 0 002.622 1.607 3.972 3.972 0 002.38-.352c.235.28.56.674.945 1.159h-.668a.762.762 0 100 1.523h1.84c1.113 1.496 2.402 3.38 3.451 5.322a25.066 25.066 0 00-4.12-3.266c-4.56-2.903-8.67-3.545-8.844-3.571a.762.762 0 00-.874.753c0 .122.017 3.029 1.47 7.076 1.311 3.654 4.098 8.961 9.928 13.643v2.791l-3.231 12.116a.761.761 0 00.736.958h14.654a.762.762 0 00.736-.958l-3.23-12.116v-2.79c5.83-4.683 8.616-9.99 9.928-13.644 1.453-4.047 1.47-6.954 1.47-7.076a.762.762 0 00-.875-.753c-.101.015-2.508.387-5.676 1.846-2.077.955-4.772 2.528-7.294 5.004 1.05-1.947 2.343-3.835 3.458-5.335h1.84a.762.762 0 000-1.523h-.669c.385-.485.71-.878.945-1.159a3.974 3.974 0 001.743.403zm5.094-6.777l-1.15 1.584a12.434 12.434 0 00-.3-1.677 24.45 24.45 0 011.45.093zM12.288 8.706l-1.15-1.584c.416-.04.913-.075 1.45-.093a12.448 12.448 0 00-.3 1.677zm5.402 3.192c-.54.392-1.199.55-1.857.446a2.478 2.478 0 01-1.628-.998c-1.092-1.504.067-5.058.969-7.158l3.069 4.225a2.498 2.498 0 01-.553 3.485zm10.74-9.843v1.954a12.46 12.46 0 00-1.228-1.178 24.4 24.4 0 011.228-.776zm-4.99 5.22V2.053c1.964 1.168 4.99 3.363 4.99 5.222a2.498 2.498 0 01-2.495 2.495 2.498 2.498 0 01-2.495-2.495zM12.632 22.042c-.902-2.49-1.224-4.543-1.34-5.675 1.42.346 4.274 1.218 7.314 3.152 2.518 1.602 4.656 3.608 6.355 5.96 1.966 2.722 3.348 5.924 4.116 9.529h-1.774c-.974-4.273-2.891-7.91-5.705-10.818a.761.761 0 10-1.095 1.06c2.543 2.627 4.3 5.907 5.234 9.758h-3.605c-5.58-4.455-8.246-9.5-9.5-12.966zm16.612 14.49v1.732h-6.618v-1.733h6.618zm3.027 13.945h-3.227l-.128-.967a.761.761 0 10-1.51.2l.102.766h-7.909l2.85-10.688h3.633l.89 6.666a.762.762 0 101.51-.201l-.863-6.465h1.802l2.85 10.689zm3.932-32.562a24.291 24.291 0 014.375-1.547c-.116 1.132-.438 3.184-1.34 5.675-1.196 3.305-3.674 8.044-8.739 12.34-.733-3.275-1.954-6.235-3.643-8.83 2.928-4.085 6.682-6.405 9.347-7.638zm-2.575-9.502l3.069-4.225c.903 2.098 2.062 5.65.968 7.158-.392.539-.97.893-1.628.998a2.479 2.479 0 01-1.857-.446 2.498 2.498 0 01-.552-3.485z"/><path d="M18.847 22.266a22.565 22.565 0 00-1.684-1.152.762.762 0 10-.802 1.295c.54.335 1.068.696 1.57 1.074a.759.759 0 001.066-.15.762.762 0 00-.15-1.067z"/></symbol><symbol viewBox="0 0 82 52" id="bus" xmlns="http://www.w3.org/2000/svg"><path d="M80.666 24.006c-.852-1.019-2.015-1.68-3.348-1.928l-.626-8.52a1.285 1.285 0 001.252-1.064l.241-1.373c.26-1.471-.102-2.924-.99-3.985-.887-1.06-2.187-1.644-3.658-1.644H64.11l.459-2.609c.13-.74-.059-1.48-.518-2.029A2.43 2.43 0 0062.177 0H15.78c-1.372 0-2.635 1.07-2.875 2.437l-4.105 23.34a1.287 1.287 0 001.266 1.51c.611 0 1.153-.44 1.263-1.064l4.105-23.34c.027-.153.224-.309.346-.309h46.238l-4.081 23.203a1.285 1.285 0 102.529.447l.295-1.683h15.357c1.062 0 1.978.398 2.582 1.119.416.497.659 1.115.717 1.798H75.15c-.623 0-1.156.449-1.264 1.064l-.483 2.746c-.195 1.106.08 2.202.754 3.007.664.794 1.672 1.25 2.766 1.25h1.209l-.996 5.663h-3.39a6.766 6.766 0 00-1.451-3.059c-1.314-1.569-3.246-2.433-5.441-2.433-3.52 0-6.917 2.31-8.506 5.492h-.516l1.666-9.473a1.284 1.284 0 10-2.529-.447l-1.745 9.92H31.458a6.766 6.766 0 00-1.452-3.058c-1.313-1.57-3.245-2.434-5.44-2.434-3.521 0-6.917 2.31-8.507 5.492H8.695l.514-2.917h5.77c.709 0 1.284-.577 1.284-1.287 0-.711-.575-1.288-1.284-1.288H1.284c-.709 0-1.284.577-1.284 1.288 0 .71.575 1.287 1.284 1.287h5.317l-.459 2.608c-.13.74.059 1.48.518 2.029a2.43 2.43 0 001.875.855h6.69c-.348 2.183.175 4.24 1.485 5.804C18.023 51.136 19.955 52 22.15 52c4.37 0 8.55-3.556 9.32-7.928.018-.104.032-.207.047-.31h25.998c-.348 2.184.175 4.24 1.484 5.805C60.312 51.136 62.245 52 64.44 52c4.37 0 8.55-3.557 9.32-7.929.017-.103.032-.206.046-.309h4.408c.624 0 1.157-.448 1.265-1.063l2.415-13.73c.327-1.864-.108-3.626-1.228-4.963zm-19.453-2.039l1.48-8.41h11.424l.618 8.41H61.213zm14.443-11.293l-.054.31H63.145l.513-2.918h9.879c.7 0 1.3.257 1.69.724.406.484.558 1.153.43 1.884zm-46.715 32.95c-.562 3.2-3.609 5.802-6.79 5.802-1.424 0-2.657-.538-3.474-1.514-.84-1.004-1.161-2.368-.902-3.84.562-3.199 3.609-5.8 6.79-5.8 1.423 0 2.657.537 3.474 1.513.84 1.004 1.161 2.368.902 3.84zm42.29 0c-.563 3.2-3.61 5.802-6.791 5.802-1.423 0-2.657-.538-3.474-1.514-.84-1.004-1.16-2.368-.902-3.84.563-3.199 3.609-5.801 6.79-5.801 1.424 0 2.658.538 3.475 1.514.84 1.004 1.16 2.368.902 3.84zm7.355-10.673h-1.662c-.343 0-.619-.114-.8-.33-.187-.224-.255-.545-.192-.905l.296-1.683h2.87l-.512 2.918z"/><path d="M25.79 41.855A2.43 2.43 0 0023.917 41c-1.372 0-2.635 1.07-2.876 2.437-.13.74.059 1.48.518 2.029a2.43 2.43 0 001.875.854c1.372 0 2.635-1.07 2.875-2.436.13-.741-.058-1.48-.517-2.03zM67.79 41.855A2.43 2.43 0 0065.917 41c-1.372 0-2.635 1.07-2.876 2.437-.13.74.059 1.48.518 2.029a2.43 2.43 0 001.875.854c1.372 0 2.635-1.07 2.875-2.436.13-.741-.058-1.48-.517-2.03zM51.553 36H35.284c-.709 0-1.284.576-1.284 1.287s.575 1.287 1.284 1.287h16.27c.708 0 1.283-.576 1.283-1.287 0-.71-.575-1.287-1.284-1.287zM28.969 30H5.284C4.575 30 4 30.576 4 31.287s.575 1.287 1.284 1.287h23.685c.709 0 1.284-.576 1.284-1.287 0-.71-.575-1.287-1.284-1.287zM53.128 25.432l-4.754-4.119a1.282 1.282 0 00-1.81.132 1.29 1.29 0 00.131 1.816l2.144 1.858H16.284c-.709 0-1.284.576-1.284 1.287s.575 1.287 1.284 1.287h31.741l-2.648 1.76a1.289 1.289 0 00.71 2.36c.244 0 .49-.07.708-.215l6.202-4.119a1.287 1.287 0 00.13-2.047z"/></symbol><symbol viewBox="0 0 59 52" id="cam" xmlns="http://www.w3.org/2000/svg"><path d="M51.58 9h-2.722a.858.858 0 100 1.717h2.722a.858.858 0 100-1.717zM36.704 13C31.904 13 28 16.906 28 21.708c0 4.8 3.905 8.704 8.704 8.704 4.802 0 8.708-3.905 8.708-8.704 0-4.802-3.906-8.708-8.708-8.708zm0 15.696a6.996 6.996 0 01-6.987-6.988c0-3.855 3.134-6.991 6.987-6.991a6.999 6.999 0 016.991 6.99c0 3.854-3.136 6.989-6.99 6.989z"/><path d="M55.381 4.606H44.954l-1.01-2.79C43.782 1.367 43.286 0 41.887 0H28.534c-1.4 0-1.894 1.367-2.057 1.817l-1.01 2.79h-8.49V2.53c0-1.13-.92-2.05-2.05-2.05h-3.823a2.05 2.05 0 00-2.046 2.05v2.112a3.221 3.221 0 00-2.726 3.18V25.38l-3.889.755a3.023 3.023 0 00-2.387 3.54L3.91 49.557a3.03 3.03 0 003.54 2.387l8.383-1.626a.858.858 0 10-.327-1.686L7.124 50.26a1.308 1.308 0 01-1.53-1.03L1.742 29.347a1.305 1.305 0 011.03-1.527l20.904-4.055c.339-.065.685.006.975.202.29.196.485.49.55.831l3.858 19.88a1.304 1.304 0 01-1.03 1.527l-8.387 1.627a.859.859 0 00.326 1.685l8.388-1.627a3.023 3.023 0 002.387-3.54L29.7 38.975h9.581a.858.858 0 100-1.717h-9.914l-.904-4.662a13.215 13.215 0 007.944 2.657c5.728 0 10.616-3.662 12.447-8.767h8.026v9.271a1.5 1.5 0 01-1.498 1.501H43.484a.858.858 0 100 1.717H55.38a3.22 3.22 0 003.215-3.218V7.824a3.22 3.22 0 00-3.215-3.218zm-27.29-2.205c.164-.454.313-.684.443-.684h13.353c.161 0 .33.372.443.684l.798 2.205H27.293l.798-2.205zm-4.899 19.637l.001.072-6.216 1.206v-4.01h6.5a13.227 13.227 0 00-.285 2.732zM10.774 2.53c0-.18.151-.333.33-.333h3.824c.183 0 .332.15.332.333v2.075h-4.486V2.531zM8.05 7.824a1.5 1.5 0 011.497-1.501h5.714v17.325l-2.905.564v-9.68c0-.825-.671-1.496-1.496-1.496H8.05V7.824zm0 6.929h2.589v9.792l-2.59.502V14.753zm28.358 18.783a11.501 11.501 0 01-8.489-3.744l-1.032-5.32a2.995 2.995 0 00-1.275-1.927 3.05 3.05 0 00-.7-.352l-.002-.155c0-6.342 5.158-11.502 11.497-11.502 6.342 0 11.502 5.16 11.502 11.502 0 6.34-5.16 11.498-11.501 11.498zm20.472-8.767h-7.54a13.215 13.215 0 000-5.463h7.54v5.463zm0-7.18h-8.026c-1.83-5.106-6.718-8.77-12.446-8.77-5.727 0-10.614 3.664-12.444 8.77h-6.986V6.324H55.38a1.5 1.5 0 011.498 1.5v9.767z"/><path d="M25.769 43.75c.201-.3.274-.652.206-.989l-2.917-14.659c-.155-.767-.955-1.235-1.823-1.068L5.313 30.122c-.871.168-1.438.905-1.29 1.684l2.92 14.649c.064.339.264.637.563.84.262.177.584.27.917.27.114 0 .23-.01.344-.033l15.919-3.088c.451-.087.846-.34 1.083-.693zm-18.364-3.8L5.77 31.781l15.666-3.039.95 4.777-2.009.39c-3.83.743-5.102 1.89-6.332 3-1.192 1.074-2.422 2.183-6.64 3.04zm1.163 5.872l-.4-2.062-.426-2.128c4.685-.954 6.152-2.275 7.452-3.448 1.153-1.04 2.148-1.937 5.51-2.59l2.017-.39 1.509 7.58-15.662 3.038z"/></symbol><symbol viewBox="0 0 70 53" id="card" xmlns="http://www.w3.org/2000/svg"><path d="M22.329 15H10.57A2.574 2.574 0 008 17.571v9.282a2.574 2.574 0 002.571 2.572H22.33a2.574 2.574 0 002.57-2.572v-9.282A2.574 2.574 0 0022.33 15zm.522 2.571v3.617h-5.377v-4.14h4.855c.288 0 .522.235.522.523zM10.05 26.853v-9.282c0-.288.234-.522.522-.522h4.855v10.327H10.57a.523.523 0 01-.522-.523zm12.28.523h-4.855v-4.14h5.377v3.617a.523.523 0 01-.522.523zM8 41.024c0 .566.459 1.025 1.024 1.025h30.143a1.024 1.024 0 100-2.049H9.024C8.46 40 8 40.459 8 41.024zM9.024 44a1.024 1.024 0 100 2.049h15.072a1.024 1.024 0 100-2.049H9.024zM27.049 36.5v-2.476a1.024 1.024 0 00-2.049 0v2.477a1.024 1.024 0 102.049 0zM32.049 36.5v-2.476a1.024 1.024 0 00-2.049 0v2.477a1.024 1.024 0 102.049 0zM36.049 36.5v-2.476a1.024 1.024 0 00-2.049 0v2.477a1.024 1.024 0 102.049 0zM41.049 36.5v-2.476a1.024 1.024 0 00-2.049 0v2.477a1.024 1.024 0 102.049 0zM47 34.024v2.477a1.024 1.024 0 102.049 0v-2.477a1.024 1.024 0 00-2.049 0zM51 34.024v2.477a1.024 1.024 0 102.049 0v-2.477a1.024 1.024 0 00-2.049 0zM56 34.024v2.477a1.024 1.024 0 102.049 0v-2.477a1.024 1.024 0 00-2.049 0zM9.024 37.525c.566 0 1.025-.458 1.025-1.024v-2.477a1.024 1.024 0 00-2.049 0v2.477c0 .566.459 1.024 1.024 1.024zM14.049 36.5v-2.476a1.024 1.024 0 00-2.049 0v2.477a1.024 1.024 0 102.049 0zM19.049 36.5v-2.476a1.024 1.024 0 00-2.049 0v2.477a1.024 1.024 0 102.049 0z"/><path d="M70.191 10.406C70.191 4.668 65.523 0 59.785 0c-5.14 0-9.418 3.746-10.255 8.65H23.024a1.024 1.024 0 100 2.05h26.359c.156 5.638 4.81 10.11 10.398 10.113h.004c.001 0 0 0 0 0h.003c1.497 0 2.947-.33 4.202-.885v17.226a1.024 1.024 0 102.049 0V18.718a10.396 10.396 0 004.152-8.312zM59.785 2.05c4.608 0 8.358 3.749 8.358 8.357 0 4.618-3.76 8.358-8.358 8.358-4.699 0-8.541-3.91-8.35-8.696a8.365 8.365 0 018.35-8.02z"/><path d="M57.042 14.188a1.025 1.025 0 001.596.186l6.626-6.625a1.024 1.024 0 00-1.449-1.45l-5.71 5.71-2.209-3.58a1.024 1.024 0 00-1.743 1.077l2.89 4.682zM64.75 41.259c-.565 0-1.023.459-1.023 1.024v4.225a3.797 3.797 0 01-3.793 3.793H5.842a3.797 3.797 0 01-3.793-3.793V14.842a3.797 3.797 0 013.793-3.793H17.98a1.024 1.024 0 100-2.049H5.842A5.848 5.848 0 000 14.842v31.666a5.848 5.848 0 005.842 5.841h54.091a5.848 5.848 0 005.842-5.841v-4.225c0-.566-.459-1.024-1.024-1.024z"/><path d="M59.61 27.603v-3.028c0-.869-.706-1.575-1.575-1.575h-10.46c-.869 0-1.575.706-1.575 1.575v3.028c0 .868.706 1.575 1.575 1.575h10.46c.869 0 1.575-.707 1.575-1.575zm-2.048-.474h-9.514v-2.08h9.514v2.08z"/></symbol><symbol viewBox="0 0 24 24" id="fb" xmlns="http://www.w3.org/2000/svg"><path d="M15.997 3.985h2.191V.169C17.81.117 16.51 0 14.996 0c-3.159 0-5.323 1.987-5.323 5.639V9H6.187v4.266h3.486V24h4.274V13.267h3.345l.531-4.266h-3.877V6.062c.001-1.233.333-2.077 2.051-2.077z"/></symbol><symbol viewBox="0 0 38 52" id="human" xmlns="http://www.w3.org/2000/svg"><path d="M35.216 37.254c-.685-3.433-3.906-4.018-3.916-4.023-.035-.01.295.073-7.855-1.947v-.277h6a2.245 2.245 0 002.242-2.242V17.322c.101-.426.101-.868 0-1.294v-4.176a.762.762 0 10-1.523 0v2.186a3.957 3.957 0 00-1.357-.498 1.987 1.987 0 00-1.674-1.53c-.872-.115-1.532-.624-1.963-1.511a1.297 1.297 0 00-1.058-.73 1.293 1.293 0 00-1.17.526c-1.309 1.783-4.95 5.78-11.236 5.78-.478 0-.802-.023-.915-.028a2.015 2.015 0 00-2.132 2.011v1.75c0 2.798 1.16 5.51 3.184 7.442.671.64 1.412 1.175 2.201 1.6v.634H8.072a.72.72 0 01-.72-.72V11.647c0-5.55 4.525-10.122 9.991-10.122h.053c1.959.01 4.22.567 5.76 1.417.977.539 1.58.11 2.544.11 2.354 0 4.24 2.42 4.466 4.597a22 22 0 01.006.649c0 .735.83.792.762.761.42 0 .762-.342.761-.762 0-.136.001-.666-.011-.79-.307-3.03-2.892-5.978-5.983-5.978-1.208 0-1.396.306-1.809.079C22.145.643 19.6.012 17.404 0 11.08-.04 5.83 5.228 5.83 11.646v17.119a2.245 2.245 0 002.243 2.242h5.972v.277l-7.824 1.94-.03.008-.573.168a.887.887 0 00-.05.017c-1.02.38-2.805 1.385-3.294 3.837C-.046 48.902.052 48.404.046 48.444-.234 50.42.756 52 3.135 52h8.238a.762.762 0 100-1.524H8.506v-7.185a.762.762 0 10-1.524 0v7.185H3.134c-1.011 0-1.6-.325-1.609-1.389-.004-.518-.025-.013 2.242-11.535.341-1.708 1.582-2.422 2.309-2.698l.528-.156 4.493-1.114c4.998 5.888 4.702 5.576 4.991 5.858 1.668 1.627 4.049 1.513 5.616-.327l4.704-5.527 4.476 1.11c.13.06 2.358.451 2.838 2.854 2.247 11.422 2.246 11.014 2.242 11.535-.008 1.041-.571 1.39-1.61 1.39h-3.82V43.29a.762.762 0 10-1.524 0v7.185H14.928a.762.762 0 100 1.524h19.426c1.883 0 3.116-1.036 3.133-2.9.007-.872-.045-.456-2.271-11.846zm-6.36-22.142c.637.19 1.128.609 1.308 1.126v.873c-.18.518-.67.937-1.307 1.127v-3.126zm0 4.83V19.8a3.945 3.945 0 001.308-.488v9.453a.72.72 0 01-.72.719h-6v-.589a10.085 10.085 0 005.413-8.954zm-15.96 6.206a8.803 8.803 0 01-2.713-6.34c.045-1.659-.11-1.86.155-2.109a.48.48 0 01.361-.131c5.463.329 10.161-2.073 13.263-6.093.837 1.468 2.063 1.925 2.972 2.045.228.03.4.224.4.451v5.97c0 7.58-9.076 11.325-14.439 6.207zm7.647 11.979c-1.061 1.247-2.547 1.243-3.606-.007l-1.59-1.876h6.799l-1.603 1.883zm2.9-3.406h-9.386l-1.31-1.546 2.242-.555a.77.77 0 00.579-.747v-2.357a10.09 10.09 0 006.353.021c.014 2.435-.033 2.38.042 2.594a.762.762 0 00.536.488l2.257.56-1.313 1.542z"/></symbol><symbol viewBox="0 0 20 20" id="inst" xmlns="http://www.w3.org/2000/svg"><path d="M5.846 0C2.622 0 0 2.604 0 5.804v8.393C0 17.397 2.622 20 5.846 20h8.505c3.224 0 5.846-2.603 5.846-5.803V5.804c0-3.2-2.622-5.804-5.846-5.804H5.846zm0 1.72h8.505c2.295 0 4.115 1.807 4.115 4.084v8.393c0 2.278-1.82 4.084-4.115 4.084H5.846c-2.295 0-4.114-1.806-4.114-4.084V5.804c0-2.277 1.82-4.085 4.114-4.085zm9.673 1.719c-.67 0-1.211.538-1.211 1.202 0 .664.542 1.202 1.21 1.202.67 0 1.212-.538 1.212-1.202 0-.664-.542-1.202-1.211-1.202zm-5.42 1.412C7.243 4.85 4.91 7.166 4.91 10s2.333 5.15 5.188 5.15c2.854 0 5.188-2.316 5.188-5.15 0-2.834-2.334-5.15-5.189-5.15zm0 1.719A3.43 3.43 0 0113.554 10a3.43 3.43 0 01-3.457 3.43A3.43 3.43 0 016.643 10a3.43 3.43 0 013.455-3.43z"/></symbol><symbol viewBox="0 0 100 33" id="logo" xmlns="http://www.w3.org/2000/svg"><path d="M9.719 17.438c-2.007 2.549-5.98 2.616-8.223.333-2.13-2.146-1.869-5.566.045-7.692.927-2.819 5.005-2.467 7.154-.748 2.49 2.007 3.054 5.524 1.024 8.107zM13.159 9.436c-1.974 0-2.785-1.23-2.953-2.725-.635-1.869.217-4.055 2.306-4.6a3.633 3.633 0 014.485 3.015 3.846 3.846 0 01-3.838 4.31z"/><path d="M19.604 31.123l.123-.232c-.826-.527-1.648-1.061-2.47-1.592a12.116 12.116 0 01-1.914-1.869c-.77-.848-1.544-1.7-2.317-2.545-.068-.07-.154-.153-.161-.22a10.374 10.374 0 01-1.869-2.736 22.763 22.763 0 01-1.338-2.422c-.041-.09.052-.247.082-.374.166-.038.326-.1.475-.183.489-.428.845-.987 1.028-1.611.788-2.018 1.465-4.063 1.39-6.272a1.5 1.5 0 00-.1-.344 1.266 1.266 0 00-.289.21c-.523.691-1.054 1.379-1.547 2.093a8.817 8.817 0 00-1.495 3.393c-.112.58-.127 1.174-.183 1.76a1.209 1.209 0 01-.09-.149c-.314-.747-.617-1.495-.942-2.242a.426.426 0 01.112-.527c.377-.353.719-.741 1.02-1.159a14.44 14.44 0 001.746-4.32c.124-.548.205-1.104.243-1.664 0-.172-.12-.355-.183-.534a1.633 1.633 0 00-.486.284c-.403.486-.788.99-1.155 1.495a8.125 8.125 0 00-1.547 3.207c-.101.568-.146 1.147-.22 1.723h-.038l-.684-2.706.194.287c.077-.155.166-.303.266-.444.444-.557 1.016-1.047 1.323-1.671.45-.966.826-1.966 1.121-2.99.115-.479.175-.97.18-1.462 0-.123-.086-.25-.135-.373-.1.04-.243.056-.295.13-.73 1.006-1.495 1.989-2.15 3.035-.285.56-.518 1.146-.695 1.75a1.6 1.6 0 01.056-1.092 19.436 19.436 0 001.223-4.829c.113-1.166.164-2.338.153-3.51A1.454 1.454 0 007.909 0c-.135.067-.314.105-.404.213a7.67 7.67 0 00-1.61 3.054c-.404 1.749-.225 3.498.108 5.232.153.796.317 1.589.478 2.392-.796-.302-1.495-.609-2.213-.833a8.294 8.294 0 00-3.83-.116 1.38 1.38 0 00-.438.243c.079.16.181.307.303.437a4.908 4.908 0 003.05 1.1 9.053 9.053 0 002.616-.315c.463-.13.523-.078.628.374.127.55.254 1.099.396 1.644.101.404.224.808.348 1.26-.109-.06-.169-.086-.225-.123a4.186 4.186 0 00-2.934-.748c-1.084.176-2.149.471-3.221.722-.173.038-.34.095-.501.168a.269.269 0 000 .512c.531.269 1.087.488 1.66.654.69.122 1.388.2 2.089.235a6.477 6.477 0 003.363-.579l1.271 3.027a8.032 8.032 0 00-4.362-.373c-1.12.243-2.242.635-3.334.979-.138.045-.246.187-.373.28.116.124.209.307.351.374.686.307 1.396.557 2.123.748.694.105 1.395.153 2.097.145a7.717 7.717 0 003.528-.833c.149-.075.294-.157.434-.247l2.478 4.19c-.374-.146-.811-.336-1.252-.47-1.87-.576-3.816-.576-5.753-.375-.71.068-1.412.22-2.115.348-.303.056-.374.21-.183.396a6.764 6.764 0 002.126 1.525c1.352.55 2.798.83 4.258.826a5.8 5.8 0 003.517-.938.504.504 0 01.482.052c.81.894 1.592 1.813 2.422 2.77l-.658-.217a9.283 9.283 0 00-2.616-.53 11.41 11.41 0 00-4.893.986c-.422.172-.863.307-1.29.464a2.082 2.082 0 00-.283.153c.074.108.127.276.224.314.796.284 1.58.676 2.403.777 1.783.22 3.585.46 5.39.116.923-.172 1.85-.329 2.598-.972a1.34 1.34 0 01.179-.112c.134.153.282.295.44.423.816.553 1.63 1.12 2.46 1.633l.322.198a.12.12 0 00.04-.06zM9.512 6.047c-.374 1.72-.747 3.458-2.138 4.729A24.45 24.45 0 019.51 6.047h.003zm-.418-.127c-.7 1.608-1.495 3.41-2.243 5.188C6.832 8.97 7.927 7.322 9.09 5.92h.004zM1.129 10.16a7.745 7.745 0 014.111.564l-4.111-.47v-.094zm-.46.325l5.042.613c-1.196.718-4.238.306-5.042-.613zM6.186 7.89c-.67-2.616 0-6.002 1.465-7.352C6.705 2.89 6.56 5.393 6.186 7.89zM7.68 1.27c.336.913-.408 5.465-1.166 6.874.205-2.306.355-4.623 1.158-6.873h.008zM6.264 14.447c.292.135.56.31.841.467l-.037.13a33.92 33.92 0 00-5.779-.28c1.638-.452 3.263-1.106 4.975-.317zm-5.124.747c.62-.25 4.986-.138 6.07.157-1.177.722-5.15.59-6.07-.16v.003zm6.96-.373a36.46 36.46 0 012.706-6.104c-.505 2.194-1.047 4.388-2.707 6.089v.015zm2.616-6.836l-2.807 6.092c-.09-2.49 1.42-4.261 2.807-6.107v.015zM1.159 19.57c2.324-1.218 6.032-1.656 7.744-.52a3.094 3.094 0 01-.374-.026c-1.304-.239-2.594-.048-3.88.146-.964.146-1.928.288-2.892.419a3.852 3.852 0 01-.587-.037l-.011.018zm.938.24c2.306-.28 4.586-.916 6.96-.486-1.006.975-4.751 1.607-6.96.485zm10.24-7.98a1.84 1.84 0 010 .35c-.201.999-.373 2.012-.634 2.991-.268.91-.598 1.8-.987 2.665-.21.35-.46.674-.748.964-.078.101-.15.206-.224.31-.026-.15-.108-.317-.064-.44a483.22 483.22 0 011.82-4.916c.24-.646.49-1.289.748-1.936l.09.012zm-.62.43c-.766 2.01-1.528 4.025-2.317 6.095-.18-2.433.852-4.346 2.317-6.096zm-.22 11.84l-7.838-.553c1.48-.557 6.036-.61 7.838.553zm-1.121 1.495a9.994 9.994 0 01-6.388-1.054 5.963 5.963 0 01-.848-.661l.04-.083c3.006.23 6.016.461 9.03.696.064 0 .12.097.218.183a3.914 3.914 0 01-2.045.916l-.007.003zm5.176 2.81c-2.75.188-5.505.08-8.335.076 2.811-1.23 5.566-1.372 8.335-.075zm-.205.79a10.419 10.419 0 01-4.142.631c-.598-.04-1.192-.104-1.79-.108a7.557 7.557 0 01-3.057-.77c3.203-.318 6.417.067 9.62-.28 0 .04.019.078.027.115-.203.167-.424.31-.658.426v-.014zM14.368 7.637c-.303.766-.882 1.076-1.533.818a1.248 1.248 0 01-.773-1.566c.235-.613 1.121-1.054 1.712-.83a1.248 1.248 0 01.594 1.578zm-.292-.113a.976.976 0 00-.456-1.184 1.177 1.177 0 00-1.311.624.94.94 0 00.598 1.215c.493.194.938-.06 1.17-.655z"/><path d="M4.218 7.061a.815.815 0 01.55 1.02 1.013 1.013 0 01-1.316.599.796.796 0 01-.374-1.062.856.856 0 011.14-.557zm-.112.262a.598.598 0 00-.8.374.58.58 0 00.243.747.777.777 0 00.957-.43.557.557 0 00-.404-.676l.004-.015zM12.07 4.53c.187-.43.47-.616.747-.493a.781.781 0 01.374.946.658.658 0 01-.852.254.478.478 0 01-.27-.706zM3.73 5.036a.542.542 0 01.281.747.635.635 0 01-.748.355c-.25-.1-.332-.404-.201-.729.13-.325.396-.486.669-.373zM1 6.329c.13-.374.344-.374.5-.27.158.106.18.281.27.427a1.41 1.41 0 01-.546.176c-.1-.012-.175-.258-.224-.333zM14.14 4.878c-.072-.254-.176-.437-.128-.504.135-.148.291-.274.464-.374.077.184.12.38.127.58 0 .1-.232.156-.463.298zM20.414 16.436c3.057.408 3.943 1.918 3.943 3.484 0 2.197-1.742 3.737-4.638 3.737-.576 0-1.738-.06-3.323-.06-.905 0-1.869.023-2.396.06v-.373c1.312-.057 1.566-.255 1.566-1.66v-9.59c0-1.406-.254-1.604-1.566-1.66V10c.538.037 1.495.056 2.358.056 1.219 0 2.452-.037 2.916-.037 2.706-.015 4.089 1.24 4.089 3.03 0 1.369-.774 2.7-2.934 3.365l-.015.022zm-3.054-4.403v4.38h1.3c2.273 0 2.834-1.494 2.834-3.165 0-1.895-.774-2.874-2.71-2.874-1.17 0-1.424.329-1.424 1.66zm5.065 7.8c0-1.962-.99-3.101-3.443-3.101H17.36v4.884c0 1.35.254 1.604 1.45 1.604 2.53 0 3.615-1.2 3.615-3.386zM34.772 18.255c0 3.708-1.932 5.233-4.384 5.233-2.452 0-4.388-1.54-4.388-5.233C26 14.562 27.932 13 30.388 13s4.384 1.54 4.384 5.255zm-6.896 0c0 3.454 1.047 4.859 2.512 4.859s2.508-1.394 2.508-4.859-1.04-4.859-2.508-4.859c-1.469 0-2.512 1.398-2.512 4.86zM42.459 14.214v.374h-2.86v7.475c0 1.215.464 1.641 1.238 1.641.773 0 1.337-.557 1.745-2.067l.374.097c-.266 1.495-.946 2.67-2.508 2.67-.89 0-1.41-.218-1.832-.644-.564-.575-.747-1.33-.747-2.706V14.6H36v-.373h1.869v-2.953c.589 0 1.174-.092 1.734-.273v3.226l2.856-.012zM49.399 13.726c.613.62.77 1.338.77 2.706v5.371c0 .624.153.916.594.916.33-.018.64-.16.87-.396l.218.332c-.479.449-1.109.7-1.764.707-1.35 0-1.66-.811-1.66-1.716a3.364 3.364 0 01-2.971 1.716c-1.294 0-2.456-.65-2.456-2.16 0-1.51 1.181-2.21 3.113-3.02 1.294-.535 2.314-.867 2.314-1.641v-1.207c0-1.623-.792-1.944-1.794-1.944-.662 0-1.473.13-1.914.688a1.193 1.193 0 01.905 1.18 1.013 1.013 0 01-.692 1.001c-.138.046-.285.062-.43.046-.661 0-1.046-.5-1.046-1.2 0-.564.374-1.009.904-1.375a4.986 4.986 0 012.71-.729c1.073 0 1.884.284 2.329.725zm-.972 3.592c-.21.314-.635.508-1.85 1.121-.849.408-1.869.965-1.869 2.456 0 1.159.658 1.697 1.547 1.697.774 0 1.525-.407 2.18-1.461l-.008-3.813zM61.544 13.725c.482.527.67 1.215.67 2.538v5.162c0 1.076.407 1.386 1.472 1.386v.408c-.441 0-1.473-.079-2.321-.079-.849 0-1.753.06-2.16.079v-.408c.926 0 1.274-.31 1.274-1.386V15.84c0-1.2-.168-2.243-1.566-2.243-1.622 0-2.706 1.547-2.706 3.52v4.307c0 1.076.347 1.386 1.282 1.386v.408c-.404 0-1.32-.079-2.168-.079-.848 0-1.869.06-2.321.079v-.408c1.065 0 1.469-.31 1.469-1.386v-6.048c0-1.159-.348-1.708-1.469-1.708v-.404c.404.038.811.056 1.196.056.68.02 1.359-.07 2.01-.265v2.276C56.888 13.594 58.177 13 59.5 13c.979 0 1.603.265 2.044.725zM67.207 21.988c0 1.077.404 1.387 1.469 1.387v.407c-.441 0-1.45-.078-2.34-.078-.89 0-1.895.06-2.336.078v-.407c1.065 0 1.469-.31 1.469-1.387v-6.047c0-1.159-.348-1.708-1.469-1.708v-.404c.404.037.811.056 1.196.056.68.02 1.359-.07 2.01-.265v8.368zm.235-11.755A1.237 1.237 0 1166.205 9a1.248 1.248 0 011.237 1.233zM78.754 22.736c.44.601.77.934 1.345 1.009v.407c-.291 0-.98-.078-1.566-.078-.811 0-1.734.06-2.138.078v-.407c.374 0 .594-.15.594-.374a.542.542 0 00-.115-.295l-2.217-3.244c-.47-.658-.774-.819-1.45-.849v3.364c0 1.076.348 1.387 1.27 1.387v.418c-.403 0-1.33-.078-2.141-.078-.886 0-1.895.06-2.336.078v-.407c1.065 0 1.469-.31 1.469-1.387V11.321c0-1.159-.348-1.697-1.469-1.697v-.407c.397.04.797.06 1.196.06A6.17 6.17 0 0073.206 9v9.595a2.549 2.549 0 001.66-.8l1.432-1.495c.433-.453.613-.8.613-1.066 0-.47-.613-.661-1.424-.661v-.374c.673.037 1.622.075 2.179.075.643 0 1.293-.038 1.682-.075v.374c-.672.076-1.292.4-1.738.908l-2.347 2.47 3.49 4.785zM86.414 13.726c.613.62.773 1.338.773 2.706v5.371c0 .624.154.916.595.916.33-.018.64-.16.87-.396l.217.332c-.478.449-1.108.7-1.764.707-1.35 0-1.663-.811-1.663-1.716a3.364 3.364 0 01-2.99 1.716c-1.29 0-2.452-.65-2.452-2.16 0-1.51 1.181-2.21 3.113-3.02 1.294-.535 2.31-.868 2.31-1.641v-1.207c0-1.623-.792-1.944-1.79-1.944-.662 0-1.473.13-1.914.688a1.193 1.193 0 01.905 1.18 1.012 1.012 0 01-1.121 1.047c-.662 0-1.047-.5-1.047-1.2 0-.564.374-1.009.904-1.375a4.982 4.982 0 012.707-.729c1.095 0 1.906.284 2.347.725zm-.972 3.592c-.206.314-.632.508-1.846 1.121-.849.408-1.87.965-1.87 2.456 0 1.159.659 1.697 1.544 1.697.774 0 1.53-.407 2.18-1.461l-.008-3.813zM32.753 30.368v1.267h-.337v-.957H29V27h.351v3.364h2.437V27h.352v3.364l.613.004zM36.99 29.695c0 .635-.448.987-1.394.987H34V27h1.551c.811 0 1.308.325 1.308.938a.841.841 0 01-.68.845.848.848 0 01.811.912zm-2.616-1.017h1.18c.629 0 .98-.239.98-.699 0-.46-.351-.691-.98-.691h-1.18v1.39zm2.276 1.017c0-.497-.303-.725-.994-.725h-1.282v1.439h1.237c.673-.019 1.039-.24 1.039-.714zM41.51 28.965h-3.162a1.57 1.57 0 002.732.95l.205.23a1.752 1.752 0 01-1.386.599 1.806 1.806 0 01-1.895-1.869 1.762 1.762 0 013.041-1.318 1.761 1.761 0 01.472 1.318c0 .019-.007.052-.007.09zm-3.155-.277h2.818a1.409 1.409 0 10-2.818 0z"/><path d="M44.226 27.318h-1.44v3.364h-.35v-3.364H41V27h3.226v.318zM47.852 29.493c0 .781-.52 1.207-1.477 1.2H45V27h.374v1.327h1.095c.897.018 1.383.422 1.383 1.166zm-.351 0c0-.598-.374-.87-1.122-.886h-1.005v1.798h1.005c.736.037 1.122-.306 1.122-.912zM48.528 27h.355v3.678h-.355V27zM54.986 29.695c0 .635-.452.987-1.394.987H52V27h1.551c.807 0 1.308.325 1.308.938a.845.845 0 01-.684.845.848.848 0 01.811.912zm-2.642-1.013h1.185c.628 0 .979-.24.979-.699 0-.46-.351-.692-.98-.692h-1.184v1.39zm2.291 1.013c0-.497-.303-.725-.994-.725h-1.297v1.439h1.24c.685-.019 1.051-.24 1.051-.714zM63.085 26v4.93h-.373V26.32h-3.338v4.609H59V26h4.085zM67.506 28.965h-3.158a1.57 1.57 0 002.732.95l.205.23a1.753 1.753 0 01-1.386.599 1.806 1.806 0 01-1.895-1.869 1.762 1.762 0 013.041-1.318 1.761 1.761 0 01.472 1.318c-.004.019-.011.052-.011.09zm-3.158-.277h2.818a1.41 1.41 0 00-2.818 0zM71.24 27.318h-1.438v3.364h-.352v-3.364H68V27h3.226l.014.318zM74.513 28.959h-3.162a1.57 1.57 0 002.732.949l.202.232a1.75 1.75 0 01-1.386.598 1.806 1.806 0 01-1.895-1.87A1.756 1.756 0 0172.764 27a1.743 1.743 0 011.757 1.869c0 .019-.008.052-.008.09zm-3.154-.277h2.814a1.41 1.41 0 00-2.814 0zM79.667 28.866a1.78 1.78 0 01-1.82 1.869 1.641 1.641 0 01-1.496-.864v2.206H76v-5.05h.336v.867a1.637 1.637 0 011.495-.893 1.782 1.782 0 011.836 1.865zm-.356 0a1.495 1.495 0 10-1.495 1.551 1.465 1.465 0 001.495-1.551zM83.719 28.66a1.75 1.75 0 01-1.82 1.842c-1.222 0-1.899-.95-1.899-2.4 0-1.67.606-2.396 1.843-2.69L83.48 25l.056.333-1.551.373c-1.122.262-1.619.838-1.641 2.243a1.644 1.644 0 011.615-1.091 1.704 1.704 0 011.76 1.801zm-.374 0a1.451 1.451 0 10-2.897 0 1.45 1.45 0 102.897 0zM87.887 27L86 31.19c-.296.676-.662.893-1.148.893a1.175 1.175 0 01-.852-.332l.176-.266a.89.89 0 00.684.288c.336 0 .583-.153.81-.654l.195-.445-1.652-3.663h.374l1.472 3.29 1.473-3.29.355-.011zM92.655 28.866a1.776 1.776 0 01-1.816 1.868 1.651 1.651 0 01-1.495-.863v2.205H89v-5.05h.34v.868A1.637 1.637 0 0190.835 27a1.78 1.78 0 011.82 1.865zm-.351 0a1.494 1.494 0 10-1.495 1.55 1.465 1.465 0 001.495-1.55zM96.515 27.318h-2.164v3.364H94V27h2.515v.318z"/><path d="M99.513 28.959h-3.162a1.57 1.57 0 002.732.949l.206.232a1.762 1.762 0 01-1.39.598 1.806 1.806 0 01-1.895-1.87A1.757 1.757 0 0197.768 27a1.739 1.739 0 011.753 1.869c0 .019-.008.052-.008.09zm-3.154-.277h2.814a1.41 1.41 0 00-2.814 0z"/></symbol><symbol viewBox="0 0 67 52" id="site" xmlns="http://www.w3.org/2000/svg"><path d="M54.425 39.313h4.171a.968.968 0 00.968-.968V4.968A.968.968 0 0058.596 4H6.968A.968.968 0 006 4.968v33.377c0 .535.433.968.968.968h42.927a.968.968 0 000-1.936H7.936V5.936h49.692v31.441h-3.203a.968.968 0 100 1.936z"/><path d="M65.113 41.72h-1.118V3.575A3.58 3.58 0 0060.42 0H15.538a.968.968 0 000 1.936h44.88c.905 0 1.641.735 1.641 1.64V41.72H4.022V3.575c0-.904.736-1.639 1.64-1.639h5.351a.968.968 0 100-1.936H5.662a3.58 3.58 0 00-3.576 3.575V41.72H.968a.968.968 0 00-.968.968v5.215A4.101 4.101 0 004.096 52h4.751a.968.968 0 100-1.936h-4.75c-1.192 0-2.161-.97-2.161-2.16v-4.248H25.81l.52 1.663a3.56 3.56 0 003.412 2.51h6.596a3.56 3.56 0 003.413-2.51l.52-1.663h23.874v4.248c0 1.19-.97 2.16-2.16 2.16H13.376a.968.968 0 100 1.936h48.607a4.101 4.101 0 004.097-4.096v-5.216a.968.968 0 00-.968-.968zm-27.21 3.022a1.632 1.632 0 01-1.565 1.15h-6.596c-.72 0-1.35-.462-1.564-1.15l-.34-1.086h10.405l-.34 1.086z"/><path d="M23.875 23.759a.968.968 0 00.95-.779l1.173-5.867a.968.968 0 00-.95-1.157h-7.43a.968.968 0 100 1.936h6.25l-.786 3.93h-7.527l-1.288-7.029a.968.968 0 00-.952-.793h-2.347a.968.968 0 100 1.936h1.54l1.273 6.943v4.084c0 .534.433.968.968.968h.045a1.304 1.304 0 002.508.708 1.303 1.303 0 00.017-.708h2.169c-.005.019-.011.038-.015.058a1.302 1.302 0 001.273 1.581c.631 0 1.157-.448 1.278-1.043a1.309 1.309 0 00-.011-.596h.298a.968.968 0 100-1.936h-6.594v-2.236h8.158zM37.108 10.968A.968.968 0 0036.14 10h-4.172a.968.968 0 00-.968.968v4.172c0 .535.433.968.968.968h4.172a.968.968 0 00.968-.968v-4.172zm-1.936 3.204h-2.236v-2.236h2.236v2.236zM40.968 16.936h8.865a.968.968 0 100-1.936h-8.865a.968.968 0 100 1.936zM40.968 11.936h14.08a.968.968 0 100-1.936h-14.08a.968.968 0 100 1.936zM37.108 19.968A.968.968 0 0036.14 19h-4.172a.968.968 0 00-.968.968v4.172c0 .535.433.968.968.968h4.172a.968.968 0 00.968-.968v-4.172zm-1.936 3.204h-2.236v-2.236h2.236v2.236zM40.968 24.936h8.865a.968.968 0 100-1.936h-8.865a.968.968 0 100 1.936zM40.968 20.936h14.08a.968.968 0 100-1.936h-14.08a.968.968 0 100 1.936zM36.14 27h-4.172a.968.968 0 00-.968.968v4.172c0 .535.433.968.968.968h4.172a.968.968 0 00.968-.968v-4.172A.968.968 0 0036.14 27zm-.968 4.172h-2.236v-2.236h2.236v2.236zM40.968 31a.968.968 0 100 1.936h8.865a.968.968 0 100-1.936h-8.865zM56.017 27.968a.968.968 0 00-.968-.968H40.968a.968.968 0 100 1.936h14.08a.968.968 0 00.969-.968z"/></symbol><symbol viewBox="0 0 512 512" id="tw" xmlns="http://www.w3.org/2000/svg"><path d="M512 97.248c-19.04 8.352-39.328 13.888-60.48 16.576 21.76-12.992 38.368-33.408 46.176-58.016-20.288 12.096-42.688 20.64-66.56 25.408C411.872 60.704 384.416 48 354.464 48c-58.112 0-104.896 47.168-104.896 104.992 0 8.32.704 16.32 2.432 23.936-87.264-4.256-164.48-46.08-216.352-109.792-9.056 15.712-14.368 33.696-14.368 53.056 0 36.352 18.72 68.576 46.624 87.232-16.864-.32-33.408-5.216-47.424-12.928v1.152c0 51.008 36.384 93.376 84.096 103.136-8.544 2.336-17.856 3.456-27.52 3.456-6.72 0-13.504-.384-19.872-1.792 13.6 41.568 52.192 72.128 98.08 73.12-35.712 27.936-81.056 44.768-130.144 44.768-8.608 0-16.864-.384-25.12-1.44C46.496 446.88 101.6 464 161.024 464c193.152 0 298.752-160 298.752-298.688 0-4.64-.16-9.12-.384-13.568 20.832-14.784 38.336-33.248 52.608-54.496z"/></symbol></svg>